<?xml version="1.0" encoding="UTF-8" standalone="no"?>
<svg
   width="128"
   height="128"
   version="1.1"
   id="svg506"
   sodipodi:docname="konsoleephemeral.svg"
   inkscape:version="1.2.2 (b0a8486, 2022-12-01)"
   xmlns:inkscape="http://www.inkscape.org/namespaces/inkscape"
   xmlns:sodipodi="http://sodipodi.sourceforge.net/DTD/sodipodi-0.dtd"
   xmlns:xlink="http://www.w3.org/1999/xlink"
   xmlns="http://www.w3.org/2000/svg"
   xmlns:svg="http://www.w3.org/2000/svg">
  <sodipodi:namedview
     id="namedview508"
     pagecolor="#ffffff"
     bordercolor="#000000"
     borderopacity="0.25"
     inkscape:showpageshadow="2"
     inkscape:pageopacity="0.0"
     inkscape:pagecheckerboard="0"
     inkscape:deskcolor="#d1d1d1"
     showgrid="false"
     inkscape:zoom="1.3037281"
     inkscape:cx="60.595456"
     inkscape:cy="60.595456"
     inkscape:window-width="1309"
     inkscape:window-height="456"
     inkscape:window-x="0"
     inkscape:window-y="25"
     inkscape:window-maximized="0"
     inkscape:current-layer="g1361" />
  <defs
     id="defs332">
    <linearGradient
       id="o"
       x2="1"
       y2="1">
      <stop
         offset="0"
         stop-color="#111"
         id="stop272" />
      <stop
         offset="1"
         stop-color="#555"
         id="stop274" />
    </linearGradient>
    <linearGradient
       id="n"
       x1="55.95"
       x2="55.95"
       y1="81"
       y2="80"
       gradientTransform="matrix(1.088 0 0 1 3.364 16)"
       gradientUnits="userSpaceOnUse">
      <stop
         offset="0"
         stop-color="#FFF"
         id="stop277" />
      <stop
         offset="1"
         stop-color="#EEE"
         id="stop279" />
    </linearGradient>
    <linearGradient
       id="b"
       x1="44"
       x2="44"
       y1="44"
       y2="40"
       gradientUnits="userSpaceOnUse">
      <stop
         offset=".5"
         stop-color="#FFF"
         id="stop282" />
      <stop
         offset="1"
         stop-color="#EEEEEC"
         id="stop284" />
    </linearGradient>
    <linearGradient
       id="a"
       x1="24"
       x2="24"
       y1="40"
       y2="20"
       gradientUnits="userSpaceOnUse">
      <stop
         offset=".5"
         stop-color="#FFF"
         id="stop287" />
      <stop
         offset="1"
         stop-color="#EEEEEC"
         id="stop289" />
    </linearGradient>
    <linearGradient
       id="h"
       x1="9"
       x2="106.56"
       y1="24.32"
       y2="53.66"
       gradientUnits="userSpaceOnUse">
      <stop
         offset="0"
         stop-color="#555753"
         id="stop292" />
      <stop
         offset=".63"
         stop-color="#2E2E2E"
         id="stop294" />
      <stop
         offset="1"
         stop-color="#2E2E2E"
         id="stop296" />
    </linearGradient>
    <linearGradient
       id="g"
       x1="56"
       x2="56"
       y1="81"
       y2="7"
       gradientTransform="matrix(1.082 0 0 1.014 3.43 7.905)"
       gradientUnits="userSpaceOnUse">
      <stop
         offset="0"
         stop-color="#BBB"
         id="stop299" />
      <stop
         offset=".59"
         stop-color="#9F9F9F"
         id="stop301" />
      <stop
         offset="1"
         stop-color="#888"
         id="stop303" />
    </linearGradient>
    <linearGradient
       xlink:href="#a"
       id="i"
       x1="24"
       x2="24"
       y1="40"
       y2="20"
       gradientTransform="translate(4 16)"
       gradientUnits="userSpaceOnUse" />
    <linearGradient
       xlink:href="#b"
       id="j"
       x1="44"
       x2="44"
       y1="44"
       y2="40"
       gradientTransform="translate(4 16)"
       gradientUnits="userSpaceOnUse" />
    <linearGradient
       xlink:href="#a"
       id="l"
       x1="24"
       x2="24"
       y1="40"
       y2="20"
       gradientTransform="translate(4 16)"
       gradientUnits="userSpaceOnUse" />
    <linearGradient
       xlink:href="#c"
       id="f"
       x1="8"
       x2="120"
       y1="40.67"
       y2="64"
       gradientTransform="matrix(1 0 0 1.08 0 -9.188)"
       gradientUnits="userSpaceOnUse" />
    <linearGradient
       xlink:href="#d"
       id="p"
       x1="64"
       x2="64"
       y1="17.36"
       y2="65.87"
       gradientTransform="matrix(1 0 0 1.08 0 -9.188)"
       gradientUnits="userSpaceOnUse" />
    <filter
       id="k"
       width="1.12"
       height="1.48"
       x="-0.060000001"
       y="-0.24">
      <feGaussianBlur
         stdDeviation=".4"
         id="feGaussianBlur311" />
    </filter>
    <filter
       id="m"
       width="1.216"
       height="1.1728"
       x="-0.108"
       y="-0.086400003">
      <feGaussianBlur
         stdDeviation=".72"
         id="feGaussianBlur314" />
    </filter>
    <filter
       id="e"
       x="-0.044571427"
       y="-0.051999998"
       width="1.0891429"
       height="1.104">
      <feGaussianBlur
         stdDeviation="2.08"
         id="feGaussianBlur317" />
    </filter>
    <radialGradient
       id="d"
       cx="52"
       cy="-31"
       r="136"
       gradientUnits="userSpaceOnUse">
      <stop
         offset="0"
         stop-color="#fff"
         id="stop320" />
      <stop
         offset="1"
         stop-color="#fff"
         stop-opacity="0"
         id="stop322" />
    </radialGradient>
    <radialGradient
       id="c"
       cx="52"
       cy="-31"
       r="136"
       gradientUnits="userSpaceOnUse">
      <stop
         offset="0"
         stop-color="#c6c6c6"
         id="stop325" />
      <stop
         offset=".52"
         stop-color="#EEE"
         id="stop327" />
      <stop
         offset="1"
         stop-color="#c6c6c6"
         id="stop329" />
    </radialGradient>
  </defs>
  <path
     d="M3 0C1.4 0 0 1.4 0 3v90c0 1.6 1.4 3 3 3h106c1.6 0 3-1.4 3-3V3c0-1.6-1.4-3-3-3H3z"
     filter="url(#e)"
     opacity=".5"
     transform="matrix(1.036 0 0 1.135 6 7)"
     id="path334" />
  <path
     fill="url(#f)"
     d="M11 8c-1.6 0-3 1.5-3 3.3v97c0 2 1.4 3.4 3 3.4h106c1.6 0 3-1.5 3-3.3v-97c0-2-1.4-3.3-3-3.3H11z"
     id="path336" />
  <path
     fill="url(#g)"
     d="M12 15c-.5 0-1 .5-1 1v73c0 .6.5 1 1 1h104c.5 0 1-.5 1-1V16c0-.6-.5-1-1-1H12z"
     id="path338" />
  <path
     d="M12 16h104v80H12z"
     id="path340" />
  <path
     fill="url(#h)"
     d="M103 76c0 1.6-1.4 3-3 3H12c-1.6 0-3-1.4-3-3V12c0-1.6 1.4-3 3-3h88c1.6 0 3 1.4 3 3v64z"
     transform="matrix(1.085 0 0 1.114 3.234 6.97)"
     id="path342" />
  <path
     fill="#fff"
     d="M13 53c42-22.4 82.2-27.6 102-28.7V17H13v36z"
     opacity=".05"
     id="path344" />
  <path
     fill="url(#i)"
     d="m36 48-16 8v-4.3L30.7 46 20 40.3V36l16 8.3V48z"
     opacity=".9"
     id="path346" />
  <path
     fill="url(#j)"
     d="M56 60H40v-4h16v4z"
     opacity=".9"
     id="path348" />
  <path
     fill="#fff"
     d="M60 60H44v-4h16v4z"
     filter="url(#k)"
     opacity=".2"
     transform="matrix(1.125 0 0 1.5 -10.5 -29)"
     id="path350" />
  <path
     fill="url(#l)"
     d="m36 48-16 8v-4.3L30.7 46 20 40.3V36l16 8.3V48z"
     filter="url(#m)"
     opacity=".4"
     id="path352" />
  <path
     fill="url(#n)"
     d="m117.2 96.7-.6-.7H12l-.8.6c.2.2.5.4.8.4h104.5c.3 0 .5 0 .7-.3z"
     id="path354" />
  <g
     fill="url(#o)"
     transform="translate(8 15)"
     id="g502">
    <circle
       cx="101"
       cy="86"
       r="1"
       id="circle356" />
    <circle
       cx="104"
       cy="89"
       r="1"
       id="circle358" />
    <circle
       cx="103"
       cy="92"
       r="1"
       id="circle360" />
    <circle
       cx="97"
       cy="86"
       r="1"
       id="circle362" />
    <circle
       cx="100"
       cy="89"
       r="1"
       id="circle364" />
    <circle
       cx="93"
       cy="86"
       r="1"
       id="circle366" />
    <circle
       cx="99"
       cy="92"
       r="1"
       id="circle368" />
    <circle
       cx="96"
       cy="89"
       r="1"
       id="circle370" />
    <circle
       cx="95"
       cy="92"
       r="1"
       id="circle372" />
    <circle
       cx="89"
       cy="86"
       r="1"
       id="circle374" />
    <circle
       cx="92"
       cy="89"
       r="1"
       id="circle376" />
    <circle
       cx="85"
       cy="86"
       r="1"
       id="circle378" />
    <circle
       cx="91"
       cy="92"
       r="1"
       id="circle380" />
    <circle
       cx="88"
       cy="89"
       r="1"
       id="circle382" />
    <circle
       cx="87"
       cy="92"
       r="1"
       id="circle384" />
    <circle
       cx="81"
       cy="86"
       r="1"
       id="circle386" />
    <circle
       cx="84"
       cy="89"
       r="1"
       id="circle388" />
    <circle
       cx="77"
       cy="86"
       r="1"
       id="circle390" />
    <circle
       cx="83"
       cy="92"
       r="1"
       id="circle392" />
    <circle
       cx="80"
       cy="89"
       r="1"
       id="circle394" />
    <circle
       cx="79"
       cy="92"
       r="1"
       id="circle396" />
    <circle
       cx="73"
       cy="86"
       r="1"
       id="circle398" />
    <circle
       cx="76"
       cy="89"
       r="1"
       id="circle400" />
    <circle
       cx="69"
       cy="86"
       r="1"
       id="circle402" />
    <circle
       cx="75"
       cy="92"
       r="1"
       id="circle404" />
    <circle
       cx="72"
       cy="89"
       r="1"
       id="circle406" />
    <circle
       cx="71"
       cy="92"
       r="1"
       id="circle408" />
    <circle
       cx="65"
       cy="86"
       r="1"
       id="circle410" />
    <circle
       cx="68"
       cy="89"
       r="1"
       id="circle412" />
    <circle
       cx="61"
       cy="86"
       r="1"
       id="circle414" />
    <circle
       cx="67"
       cy="92"
       r="1"
       id="circle416" />
    <circle
       cx="64"
       cy="89"
       r="1"
       id="circle418" />
    <circle
       cx="63"
       cy="92"
       r="1"
       id="circle420" />
    <circle
       cx="57"
       cy="86"
       r="1"
       id="circle422" />
    <circle
       cx="60"
       cy="89"
       r="1"
       id="circle424" />
    <circle
       cx="53"
       cy="86"
       r="1"
       id="circle426" />
    <circle
       cx="59"
       cy="92"
       r="1"
       id="circle428" />
    <circle
       cx="56"
       cy="89"
       r="1"
       id="circle430" />
    <circle
       cx="55"
       cy="92"
       r="1"
       id="circle432" />
    <circle
       cx="49"
       cy="86"
       r="1"
       id="circle434" />
    <circle
       cx="52"
       cy="89"
       r="1"
       id="circle436" />
    <circle
       cx="45"
       cy="86"
       r="1"
       id="circle438" />
    <circle
       cx="51"
       cy="92"
       r="1"
       id="circle440" />
    <circle
       cx="48"
       cy="89"
       r="1"
       id="circle442" />
    <circle
       cx="47"
       cy="92"
       r="1"
       id="circle444" />
    <circle
       cx="41"
       cy="86"
       r="1"
       id="circle446" />
    <circle
       cx="44"
       cy="89"
       r="1"
       id="circle448" />
    <circle
       cx="37"
       cy="86"
       r="1"
       id="circle450" />
    <circle
       cx="43"
       cy="92"
       r="1"
       id="circle452" />
    <circle
       cx="40"
       cy="89"
       r="1"
       id="circle454" />
    <circle
       cx="39"
       cy="92"
       r="1"
       id="circle456" />
    <circle
       cx="33"
       cy="86"
       r="1"
       id="circle458" />
    <circle
       cx="36"
       cy="89"
       r="1"
       id="circle460" />
    <circle
       cx="29"
       cy="86"
       r="1"
       id="circle462" />
    <circle
       cx="35"
       cy="92"
       r="1"
       id="circle464" />
    <circle
       cx="32"
       cy="89"
       r="1"
       id="circle466" />
    <circle
       cx="31"
       cy="92"
       r="1"
       id="circle468" />
    <circle
       cx="25"
       cy="86"
       r="1"
       id="circle470" />
    <circle
       cx="28"
       cy="89"
       r="1"
       id="circle472" />
    <circle
       cx="21"
       cy="86"
       r="1"
       id="circle474" />
    <circle
       cx="27"
       cy="92"
       r="1"
       id="circle476" />
    <circle
       cx="24"
       cy="89"
       r="1"
       id="circle478" />
    <circle
       cx="23"
       cy="92"
       r="1"
       id="circle480" />
    <circle
       cx="17"
       cy="86"
       r="1"
       id="circle482" />
    <circle
       cx="20"
       cy="89"
       r="1"
       id="circle484" />
    <circle
       cx="13"
       cy="86"
       r="1"
       id="circle486" />
    <circle
       cx="19"
       cy="92"
       r="1"
       id="circle488" />
    <circle
       cx="16"
       cy="89"
       r="1"
       id="circle490" />
    <circle
       cx="15"
       cy="92"
       r="1"
       id="circle492" />
    <circle
       cx="9"
       cy="86"
       r="1"
       id="circle494" />
    <circle
       cx="12"
       cy="89"
       r="1"
       id="circle496" />
    <circle
       cx="11"
       cy="92"
       r="1"
       id="circle498" />
    <circle
       cx="8"
       cy="89"
       r="1"
       id="circle500" />
  </g>
  <path
     fill="url(#p)"
     d="M11 8c-1.6 0-3 1.5-3 3.3v97c0 1 .4 2 1 2.6V12.3c0-1.8 1.3-3.2 3-3.2h104c1.7 0 3 1.4 3 3.2.7 25 0 98.2 0 98.2v.3c.6-.7 1-1.6 1-2.5v-97c0-1.8-1.4-3.2-3-3.2H11z"
     opacity=".9"
     id="path504" />
  <g
     id="g1361"
     transform="matrix(0.19724255,0,0,0.19970776,55.370323,25)">
	<path
   style="fill:#527edb;fill-opacity:1"
   d="M 276.967,0 H 192.469 L 70.415,178.385 h 84.498 z"
   id="path1353" />

	<path
   style="fill:#527edb;fill-opacity:1"
   d="M 23.472,0 H 107.97 L 230.023,178.385 H 145.525 Z"
   id="path1355" />

	<path
   style="fill:#f2f2f2"
   d="m 154.914,93.887 c 57.271,0 103.276,46.005 103.276,103.276 0,57.271 -46.005,103.276 -103.276,103.276 -57.271,0 -103.276,-46.005 -103.276,-103.276 0,-57.271 46.005,-103.276 103.276,-103.276 z"
   id="path1357" />

	<path
   style="fill:#527edb;fill-opacity:1"
   d="m 154.914,122.053 c -41.31,0 -75.11,33.799 -75.11,75.11 0,41.311 33.799,75.11 75.11,75.11 41.311,0 75.11,-33.799 75.11,-75.11 0,-41.311 -33.8,-75.11 -75.11,-75.11 z m 0,131.442 c -30.983,0 -56.332,-25.35 -56.332,-56.332 0,-30.982 25.35,-56.332 56.332,-56.332 30.982,0 56.332,25.35 56.332,56.332 0,30.982 -25.35,56.332 -56.332,56.332 z"
   id="path1359" />

</g>
</svg>
