<svg width="128" height="128" xmlns="http://www.w3.org/2000/svg">

 <g>
  <title>background</title>
  <rect fill="none" id="canvas_background" height="602" width="802" y="-1" x="-1"/>
 </g>
 <g>
  <title>Layer 1</title>
  <g id="svg_2">
   <path id="svg_3" fill="#6ec6f0" d="m95.24526,79.86679l-64,0c-3.309,0 -6,-2.691 -6,-6l0,-36c0,-3.309 2.691,-6 6,-6l64,0c3.309,0 6,2.691 6,6l0,36c0,3.309 -2.691,6 -6,6zm-64,-44c-1.103,0 -2,0.897 -2,2l0,36c0,1.103 0.897,2 2,2l64,0c1.103,0 2,-0.897 2,-2l0,-36c0,-1.103 -0.897,-2 -2,-2l-64,0z"/>
  </g>
  <g id="svg_4">
   <path id="svg_5" fill="#6ec6f0" d="m63.62262,93.88679c-1.104,0 -2,-0.896 -2,-2l0,-14c0,-1.104 0.896,-2 2,-2s2,0.896 2,2l0,14c0,1.104 -0.896,2 -2,2z"/>
  </g>
  <g id="svg_6">
   <path id="svg_7" fill="#6ec6f0" d="m75.62262,93.88679l-24,0c-1.104,0 -2,-0.896 -2,-2s0.896,-2 2,-2l24,0c1.104,0 2,0.896 2,2s-0.896,2 -2,2z"/>
  </g>
  <text stroke="#000" transform="matrix(1.2138264656620148,0,0,1.1157363676412815,-17.74557475082669,-6.5200121952859575) " xml:space="preserve" text-anchor="start" font-family="Helvetica, Arial, sans-serif" font-size="30" id="svg_14" y="66.09349" x="42.08035" stroke-width="0" fill="#000000">abc</text>
 </g>
</svg>